<svg class="me__paused" width="500" height="600" viewBox="0 0 434 390" fill="none" xmlns="http://www.w3.org/2000/svg">
  <path id="me__blob" fill-rule="evenodd" clip-rule="evenodd" d="M216.518 27.5037C252.707 31.2517 279.868 56.1993 306.225 77.4116C328.269 95.1524 337.344 120.211 356.519 140.175C380.082 164.708 423.532 177.469 431.872 208.228C440.201 238.949 423.008 272.75 399.022 296.94C376.081 320.077 335.196 321.024 304.564 336.621C273.108 352.636 253.17 387.494 216.518 389.862C179.996 392.222 152.178 363.725 120.307 348.526C88.1547 333.194 49.525 325.138 27.8958 299.913C5.58202 273.891 0.196393 240.323 0.00410615 208.228C-0.188778 176.033 6.38037 143.23 26.794 116.006C46.864 89.2408 80.2078 72.7507 113.094 57.4101C145.531 42.2788 179.712 23.692 216.518 27.5037Z" fill="#D3E8E5"/>
  <g id="me__group">
    <path id="me__shirt" d="M190.981 342.518C123.003 361.429 55.5631 360.607 55.5631 342.518C55.5633 331.385 41.5631 291.395 105.063 273.895C105.063 284.395 135.252 303.395 193.063 303.395C229.563 303.395 268.752 294.895 279.063 274.895C331.063 284.895 325.368 332.621 325.368 342.518C308.696 329.363 250.091 326.075 190.981 342.518Z" fill="#6E869F"/>
    <path id="me__face" d="M271 65L274.478 123.38C274.478 123.38 274.994 130.154 274.478 140.578C276.038 132.681 282.213 117.835 294.44 121.625C309.724 126.364 297.763 169.683 293.776 174.421C290.586 178.211 278.814 180.964 273.326 181.867C273.326 219.5 220.796 250 207.374 250L201.394 249.993L201.393 249.993L195.413 249.985L191.426 250L188.768 249.89L175.478 249.781C162.188 249.781 113.029 225 113.029 181.867C104.391 181.867 95.3694 179.56 93.079 175.499C87.0984 164.895 74.4882 141.302 85.1201 128.118C100.404 109.166 109.5 139 109.5 139L114.471 97.6676L164.368 86.5L203.339 74L191.007 90.5L245.27 74L245.27 80L271 65Z" fill="#FBFBFB"/>
    <path id="me__neck" d="M230.5 247C221.572 270.625 214.28 282.308 192 298C164.517 283.587 155.493 269.021 147 245C153.328 248.771 167 255.5 174 255.5L206.5 255.5C213.5 255.5 224.5 251 230.5 247Z" fill="#FBFBFB"/>
    <path id="me__ear-right" d="M297.873 146C285.975 147.7 283 153.318 283 155.915C283.486 163.541 294.332 159.456 292.915 153.791" stroke="#77818A" stroke-width="2" stroke-linecap="round"/>
    <path id="me__ear-left" d="M85.9999 146C97.8982 147.7 100.873 153.318 100.873 155.915C100.387 163.541 89.5411 159.456 90.9575 153.791" stroke="#77818A" stroke-width="2" stroke-linecap="round"/>
    <path id="me__mouth" d="M167.5 199.5C177.929 211.579 208 214 217.5 202.5" stroke="#728292" stroke-width="3" stroke-linecap="round"/>
    <path id="me__nose" fill-rule="evenodd" clip-rule="evenodd" d="M179.83 170.085C180.41 169.575 181.292 169.634 181.8 170.216C184.223 172.995 188.315 174.655 192.723 174.747C197.111 174.839 201.615 173.368 204.825 170.148C205.371 169.601 206.255 169.601 206.8 170.149C207.345 170.696 207.345 171.583 206.8 172.13C202.961 175.981 197.674 177.653 192.664 177.548C187.673 177.444 182.758 175.568 179.699 172.061C179.191 171.479 179.25 170.594 179.83 170.085Z" fill="#77818A"/>
    <path id="me__mouth-line" d="M189 217H197" stroke="#728292" stroke-width="2" stroke-linecap="round"/>
    <path id="me__hair-right" d="M271.465 62L270 63.5096L274.395 141C277.381 132.431 282.817 118.357 291 118.357L288.21 74.893C288.052 70.8241 285.755 67.3038 282.46 66.0255C278.859 64.6286 272.651 62.6557 271.465 62Z" fill="#6E869F"/>
    <path id="me__hair-top" d="M112 56.5C96.0001 68 77.5 99.5 113.5 108.5L115.5 99L205.5 74.5L191 91.5L246.5 74L246.526 80.8551C246.526 80.8551 260.714 73.1512 270.5 65C272.577 60.1936 273.5 42.5 273.5 37C273.5 27.5 259.897 24.414 247 21C230 16.5 213.5 8.00001 196.5 8C175.994 7.99999 168 8.5 156 12.5C132 22 128 45 112 56.5Z" fill="#6E869F"/>
    <path id="me__hair-left" d="M113.5 114L109.5 139.5C106.466 133.803 106.5 127.5 96.3333 120L97 109C102.318 112.067 113.5 114 113.5 114Z" fill="#6E869F"/>
    <path id="me__neck-right" d="M240 248.575C250 247 290.5 262.5 268.5 283C253.748 296.746 228.745 297.807 201.64 302.33C220.367 289.765 235.588 262.304 240 248.575Z" fill="#D9D9D9"/>
    <path id="me__neck-left" d="M141.064 248.575C114.945 248.575 98.9086 270.165 115 285.5C117.209 287.606 150.932 299.992 180.5 301.5C164 293.5 148.428 271.057 143.5 260L141.064 248.575Z" fill="#D9D9D9"/>
    <path id="me__dash" class="svg__me-dash" d="M49.7521 335.395C46.4188 318.395 52.4521 281.595 103.252 270.395C103.252 259.895 112.752 246.895 144.252 243.895C144.905 243.833 144.752 244.311 144.252 244.395C139.752 243.895 103.352 248.795 103.752 270.395C104.252 297.395 181.252 302.895 191.752 302.895C191.752 302.895 192.119 302.549 191.752 302.395C176.201 295.88 147.878 275.611 144.752 242.395C134.919 236.061 116.152 218.495 111.752 198.895C110.752 195.395 109.004 173.846 108.752 173.395C108.5 172.943 109 184.5 109 184.5C104 184.5 91.6522 183.495 89.2522 179.895C86.2522 175.395 74.2522 152.895 74.7522 141.395C75.2522 129.895 82.2522 123.895 89.2522 122.895C94.8522 122.095 104.5 136 104.252 135.395C104.004 134.79 98.4 124 92 122L94 105.5C94 105.5 115.5 115.538 114 114.5C109.5 111.385 92.2522 106.833 89.2522 99C86.2522 91.1667 85.9522 72.9947 106.752 55.3947C132.752 33.3947 127 9.99996 177.752 3.39474C192.5 1.4754 218.5 5.49999 232.5 11.5C238.459 14.0537 253 17.8333 257.5 19C267 21.463 275.748 26 277.5 33C279.779 42.1052 275.687 60.17 276 60.17C276.313 60.17 282.5 53 285.752 39.8948C286.451 37.0785 284.5 51 277.5 59C279.5 58 286.152 55.6948 291.752 56.8948C292.5 57.055 282.152 55.7948 277.752 59.3948C274.061 64.903 250.565 79.3737 247 79.5V73.5C232.05 80.4277 200.006 90.4447 190.5 91L204.752 74.8948C184.35 81.8944 134.32 93.7851 121 95.5C113.167 97.6667 114 106.867 114 113C114 118.5 108 99.5 121.5 96C142.778 92.2467 190.064 80.3484 203 76L189.252 91.8948C202.89 90.0121 239.885 77.9689 246.5 74.5V80.5C260.302 73.4891 267.624 69.2412 278.5 60C283.167 61.3333 292.752 64.9948 292.752 69.3948C292.752 73.7948 294.752 105.561 295.752 120.895C287.5 119.5 280 136.5 281.252 134.395C281.817 133.445 288.252 118.995 296.252 121.395C304.252 123.795 307.252 131.061 307.752 134.395C306.919 146.895 303.952 172.995 298.752 177.395C293.552 181.795 281.586 184.228 276.752 184.895C276.752 184.895 276.859 177.477 276.5 173C276.366 171.329 275.752 192.395 275.752 192.395C273.919 202.228 260 227 236.752 242.395C229.419 246.895 213.7 255.695 208.5 254.895C208.5 254.895 209.252 249 209 249C208.748 249 207.752 254.895 207.752 254.895H202C202 254.895 202.868 245.5 202.5 245.5C202 245.5 201.252 254.895 201.252 254.895H196.252C196.252 254.895 196.252 247.895 195.752 247.895C195.252 247.895 195.252 254.895 195.252 254.895H189.252C189.252 254.895 189.252 245.895 188.752 245.895C188.252 245.895 188.252 254.895 188.252 254.895H182.252C182.252 254.895 181.5 241 181 241C180.5 241 181.252 254.895 181.252 254.895H175.119C175.119 254.895 174.748 247.5 174.5 247.5C174.252 247.5 174.907 254.895 174.907 254.895C170.379 254.942 160.082 249.735 145.5 243C147 244 167 255.5 177.5 255.395H209.252C212.919 255.061 223.552 252.195 236.752 243.395C232.811 258.996 214.569 292.237 192.252 302.395C191.92 302.546 192.252 302.895 192.252 302.895C212.752 302.895 265.952 301.395 280.752 271.395C280.586 263.228 271.2 246.195 238 243.395C250.667 243.061 277.852 248.195 282.252 271.395C299.252 273.228 333.052 288.695 332.252 335.895" stroke="#56697C" stroke-width="4" stroke-linecap="round"/>
    <path id="me__cord-left" d="M151.5 288.376C151.5 288.376 149.167 288.876 148 289.878M151.5 288.376L151.5 325.01L151.5 362C151.5 365 158.81 365 158.81 362L158.5 288.376M151.5 288.376C153.833 287.875 156.167 287.875 158.5 288.376M158.5 288.376C158.5 288.376 160.833 288.876 162 289.878" stroke="#374F67" stroke-width="3" stroke-linecap="round"fill="#FBF5E8" />
    <path id="me__cord-right" d="M224.5 288.376C224.5 288.376 222.167 288.876 221 289.878M224.5 288.376L224.5 325.01L224.5 362C224.5 365 231.81 365 231.81 362L231.5 288.376M224.5 288.376C226.833 287.875 229.167 287.875 231.5 288.376M231.5 288.376C231.5 288.376 233.833 288.876 235 289.878" stroke="#374F67" stroke-width="3" stroke-linecap="round" fill="#FBF5E8"/>
    <g id="me__eye-left">
      <path id="me__eye-left-dot" d="M163 143.5C163 152.613 157.627 160 151 160C144.373 160 139 152.613 139 143.5C139 134.387 144.373 127 151 127C157.627 127 163 134.387 163 143.5Z" fill="#0F3154"/>
      <path id="me__eye-left-linetop" d="M138 131C146 126 156 126 164 131" stroke="#0F3154" stroke-width="4" stroke-linecap="round"/>
    </g>
    <g id="me__eye-right">
      <path id="me__eye-right-dot" d="M247 143.5C247 152.613 241.627 160 235 160C228.373 160 223 152.613 223 143.5C223 134.387 228.373 127 235 127C241.627 127 247 134.387 247 143.5Z" fill="#0F3154"/>
      <path id="me__eye-right-linetop" d="M222 131C230 126 240 126 248 131" stroke="#0F3154" stroke-width="4" stroke-linecap="round"/>
    </g>
    <path id="me__glasses" d="M179 127.5V126C179 122.134 175.866 119 172 119H117C113.134 119 110 122.134 110 126V146C110 178.5 179 177.5 179 146V136C179 132.134 182.134 129 186 129H202C205.866 129 209 132.134 209 136V146C208 178 276 176 276 146V126C276 122.134 272.866 119 269 119H216C212.134 119 209 122.134 209 126V127.5" stroke="#56697C" stroke-width="7" stroke-linecap="round"/>
    <path id="me__eyebrow-left" d="M146.181 95.8598C127.658 99.395 122.203 103.866 113.014 112.711C112.17 113.524 113.247 115.03 114.303 114.526C128.555 107.726 137.705 106.913 151.772 105.768C153.506 105.627 164.853 106.227 167.801 106.387C168.223 106.409 168.61 106.163 168.774 105.772L171.976 98.1336C172.177 97.6535 171.983 97.0979 171.507 96.891C165.27 94.1778 153.56 94.4514 146.181 95.8598Z" fill="#374F67"/>
    <path id="me__eyebrow-right" d="M238.478 95.2783C257.001 98.8135 262.455 103.285 271.645 112.13C272.489 112.942 271.412 114.449 270.356 113.945C256.104 107.144 246.954 106.331 232.887 105.187C231.153 105.046 219.806 105.645 216.858 105.805C216.436 105.828 216.049 105.582 215.885 105.191L212.683 97.552C212.481 97.072 212.676 96.5164 213.152 96.3095C219.388 93.5963 231.098 93.8699 238.478 95.2783Z" fill="#374F67"/>
    <path id="me__adam's-apple" d="M202 270C198.333 278.524 182.2 277.458 180 270" stroke="#728292" stroke-width="2" stroke-linecap="round"/>
  </g>
</svg>