<svg width="100%" height="100%" viewBox="0 0 77 98" fill="none" xmlns="http://www.w3.org/2000/svg">
<path d="M2.8 79.1L3.395 78.2705L31.465 25.0215L31.5245 24.458L19.152 1.21797C18.9255 0.792994 18.5711 0.449994 18.1389 0.237499C17.7068 0.0250046 17.2187 -0.0462253 16.7439 0.0338864C16.269 0.113998 15.8314 0.341395 15.4928 0.683907C15.1543 1.02642 14.932 1.4667 14.8575 1.94247L2.8 79.1Z" fill="#FFC24A"/>
<path d="M3.15 78.47L3.598 77.595L31.3775 24.899L19.0365 1.56803C18.833 1.16228 18.5035 0.833404 18.0974 0.630659C17.6912 0.427915 17.2303 0.362221 16.7837 0.443421C16.3371 0.524622 15.9289 0.748344 15.6201 1.08107C15.3113 1.4138 15.1187 1.83762 15.071 2.28903L3.15 78.47Z" fill="#FFA712"/>
<path d="M40.544 42.035L49.756 32.585L40.5405 15.0115C40.3377 14.6333 40.0361 14.3172 39.6678 14.0968C39.2996 13.8764 38.8784 13.76 38.4493 13.76C38.0201 13.76 37.599 13.8764 37.2307 14.0968C36.8624 14.3172 36.5608 14.6333 36.358 15.0115L31.4335 24.3985V25.2L40.544 42.035Z" fill="#F4BD62"/>
<path d="M40.3795 41.65L49.336 32.48L40.3795 15.4C40.2329 15.0303 39.9825 14.7109 39.6585 14.4802C39.3344 14.2496 38.9506 14.1177 38.5533 14.1003C38.156 14.0829 37.7621 14.1808 37.4191 14.3822C37.0762 14.5837 36.7988 14.88 36.6205 15.2355L31.6715 24.787L31.5245 25.2735L40.3795 41.65Z" fill="#FFA50E"/>
<path d="M2.807 79.1035L3.0765 78.8305L4.053 78.435L39.963 42.658L40.418 41.419L31.4615 24.346L2.807 79.1035Z" fill="#F6820C"/>
<path d="M41.692 97.146L74.2 79.0195L64.911 21.861C64.8444 21.4581 64.6681 21.0813 64.4014 20.772C64.1347 20.4627 63.7879 20.2329 63.3992 20.1077C63.0104 19.9826 62.5947 19.967 62.1977 20.0627C61.8006 20.1583 61.4376 20.3616 61.1485 20.65L2.8 79.1L35.1155 97.1425C36.1202 97.7031 37.2515 97.9974 38.402 97.9974C39.5525 97.9974 40.6838 97.7031 41.6885 97.1425" fill="#FDE068"/>
<path d="M73.9025 78.869L64.6905 22.141C64.6742 21.7556 64.544 21.3837 64.3163 21.0723C64.0886 20.761 63.7736 20.5242 63.4112 20.3919C63.0489 20.2596 62.6554 20.2378 62.2807 20.3292C61.9059 20.4207 61.5667 20.6212 61.306 20.9055L3.15 78.9915L35.1085 96.8415C36.1052 97.3975 37.2275 97.6894 38.3688 97.6894C39.51 97.6894 40.6323 97.3975 41.629 96.8415L73.9025 78.869Z" fill="#FCCA3F"/>
<path d="M41.692 96.6C40.6874 97.1606 39.556 97.4549 38.4055 97.4549C37.255 97.4549 36.1237 97.1606 35.119 96.6L3.066 78.827L2.8 79.1L35.1155 97.1425C36.1202 97.7031 37.2515 97.9974 38.402 97.9974C39.5525 97.9974 40.6838 97.7031 41.6885 97.1425L74.2 79.0195L74.1195 78.5295L41.692 96.6Z" fill="#EEAB37"/>
</svg>
