<svg width="100%" height="100%" viewBox="0 0 69 74" fill="none" xmlns="http://www.w3.org/2000/svg">
  <path d="M7.28273 66.356L1.22637 0.30835H67.7736L61.7092 66.3455L34.4596 73.6917L7.28273 66.356Z" fill="#E44F26"/>
  <path d="M34.5 68.0779L56.5207 62.1417L61.7011 5.7099H34.5V68.0779Z" fill="#F1662A"/>
  <path d="M34.5 30.2042H23.4762L22.7161 21.9092H34.5V13.8082H34.4704H13.6113L13.8108 15.9835L15.8565 38.3052H34.5V30.2042Z" fill="#EBEBEB"/>
  <path d="M34.5 51.2416L34.4623 51.2521L25.185 48.8173L24.592 42.357H20.0828H16.2285L17.3955 55.0733L34.4623 59.6807L34.5 59.6702V51.2416Z" fill="#EBEBEB"/>
  <path d="M34.4704 30.2042V38.3052H44.7287L43.7638 48.8121L34.4704 51.2495V59.6781L51.5505 55.0733L51.6745 53.7052L53.6313 32.3795L53.8362 30.2042H51.591H34.4704Z" fill="white"/>
  <path d="M34.4704 13.8082V18.8402V21.8909V21.9092H54.5666H54.5936L54.7607 20.0904L55.1407 15.9835L55.3402 13.8082H34.4704Z" fill="white"/>
</svg>
