<svg width="100%" height="100%" viewBox="0 0 749 182" fill="none" xmlns="http://www.w3.org/2000/svg">
<path d="M7.22656 21.9062H32.373C37.7767 21.9062 42.3828 22.7201 46.1914 24.3477C50 25.9753 52.9134 28.3841 54.9316 31.5742C56.9824 34.7318 58.0078 38.638 58.0078 43.293C58.0078 46.8411 57.3568 49.9661 56.0547 52.668C54.7526 55.3698 52.9134 57.6484 50.5371 59.5039C48.1608 61.3268 45.3288 62.7428 42.041 63.752L38.3301 65.5586H15.7227L15.625 55.8418H32.5684C35.498 55.8418 37.9395 55.321 39.8926 54.2793C41.8457 53.2376 43.3105 51.8216 44.2871 50.0312C45.2962 48.2083 45.8008 46.1576 45.8008 43.8789C45.8008 41.4049 45.3125 39.2565 44.3359 37.4336C43.3919 35.5781 41.9271 34.1621 39.9414 33.1855C37.9557 32.1764 35.4329 31.6719 32.373 31.6719H19.4824V93H7.22656V21.9062ZM47.8027 93L31.1035 61.0664L43.9453 61.0176L60.8887 92.3652V93H47.8027ZM81.6406 40.168V93H69.8242V40.168H81.6406ZM69.043 26.3008C69.043 24.5104 69.6289 23.0293 70.8008 21.8574C72.0052 20.653 73.6654 20.0508 75.7812 20.0508C77.8646 20.0508 79.5085 20.653 80.7129 21.8574C81.9173 23.0293 82.5195 24.5104 82.5195 26.3008C82.5195 28.0586 81.9173 29.5234 80.7129 30.6953C79.5085 31.8672 77.8646 32.4531 75.7812 32.4531C73.6654 32.4531 72.0052 31.8672 70.8008 30.6953C69.6289 29.5234 69.043 28.0586 69.043 26.3008ZM116.113 84.6016C118.034 84.6016 119.759 84.2272 121.289 83.4785C122.852 82.6973 124.105 81.623 125.049 80.2559C126.025 78.8887 126.562 77.3099 126.66 75.5195H137.744C137.679 78.9375 136.67 82.0462 134.717 84.8457C132.764 87.6452 130.176 89.875 126.953 91.5352C123.73 93.1628 120.166 93.9766 116.26 93.9766C112.223 93.9766 108.708 93.293 105.713 91.9258C102.718 90.526 100.228 88.6055 98.2422 86.1641C96.2565 83.7227 94.7591 80.9069 93.75 77.7168C92.7734 74.5267 92.2852 71.1087 92.2852 67.4629V65.7539C92.2852 62.1081 92.7734 58.6901 93.75 55.5C94.7591 52.2773 96.2565 49.4453 98.2422 47.0039C100.228 44.5625 102.718 42.6582 105.713 41.291C108.708 39.8913 112.207 39.1914 116.211 39.1914C120.443 39.1914 124.154 40.0378 127.344 41.7305C130.534 43.3906 133.04 45.7181 134.863 48.7129C136.719 51.6751 137.679 55.1257 137.744 59.0645H126.66C126.562 57.1113 126.074 55.3535 125.195 53.791C124.349 52.196 123.145 50.9264 121.582 49.9824C120.052 49.0384 118.213 48.5664 116.064 48.5664C113.688 48.5664 111.719 49.0547 110.156 50.0312C108.594 50.9753 107.373 52.2773 106.494 53.9375C105.615 55.5651 104.98 57.4043 104.59 59.4551C104.232 61.4733 104.053 63.5729 104.053 65.7539V67.4629C104.053 69.6439 104.232 71.7598 104.59 73.8105C104.948 75.8613 105.566 77.7005 106.445 79.3281C107.357 80.9232 108.594 82.209 110.156 83.1855C111.719 84.1296 113.704 84.6016 116.113 84.6016ZM176.562 82.4043V57.209C176.562 55.321 176.221 53.6934 175.537 52.3262C174.854 50.959 173.812 49.901 172.412 49.1523C171.045 48.4036 169.32 48.0293 167.236 48.0293C165.316 48.0293 163.656 48.3548 162.256 49.0059C160.856 49.6569 159.766 50.5358 158.984 51.6426C158.203 52.7493 157.812 54.0026 157.812 55.4023H146.094C146.094 53.319 146.598 51.3008 147.607 49.3477C148.617 47.3945 150.081 45.653 152.002 44.123C153.923 42.5931 156.217 41.3887 158.887 40.5098C161.556 39.6309 164.551 39.1914 167.871 39.1914C171.842 39.1914 175.358 39.8587 178.418 41.1934C181.51 42.528 183.936 44.5462 185.693 47.248C187.484 49.9173 188.379 53.2702 188.379 57.3066V80.793C188.379 83.2018 188.542 85.3665 188.867 87.2871C189.225 89.1751 189.73 90.819 190.381 92.2188V93H178.32C177.767 91.7305 177.327 90.1191 177.002 88.166C176.709 86.1803 176.562 84.2598 176.562 82.4043ZM178.271 60.8711L178.369 68.1465H169.922C167.741 68.1465 165.82 68.3581 164.16 68.7812C162.5 69.1719 161.117 69.7578 160.01 70.5391C158.903 71.3203 158.073 72.2643 157.52 73.3711C156.966 74.4779 156.689 75.7311 156.689 77.1309C156.689 78.5306 157.015 79.8164 157.666 80.9883C158.317 82.1276 159.261 83.0228 160.498 83.6738C161.768 84.3249 163.298 84.6504 165.088 84.6504C167.497 84.6504 169.596 84.1621 171.387 83.1855C173.21 82.1764 174.642 80.9557 175.684 79.5234C176.725 78.0586 177.279 76.6751 177.344 75.373L181.152 80.5977C180.762 81.9323 180.094 83.3646 179.15 84.8945C178.206 86.4245 176.969 87.8893 175.439 89.2891C173.942 90.6562 172.135 91.7793 170.02 92.6582C167.936 93.5371 165.527 93.9766 162.793 93.9766C159.342 93.9766 156.266 93.293 153.564 91.9258C150.863 90.526 148.747 88.6543 147.217 86.3105C145.687 83.9342 144.922 81.2487 144.922 78.2539C144.922 75.4544 145.443 72.9805 146.484 70.832C147.559 68.651 149.121 66.8281 151.172 65.3633C153.255 63.8984 155.794 62.7917 158.789 62.043C161.784 61.2617 165.202 60.8711 169.043 60.8711H178.271ZM212.5 50.2266V93H200.732V40.168H211.963L212.5 50.2266ZM228.662 39.8262L228.564 50.7637C227.848 50.6335 227.067 50.5358 226.221 50.4707C225.407 50.4056 224.593 50.373 223.779 50.373C221.761 50.373 219.987 50.666 218.457 51.252C216.927 51.8053 215.641 52.6191 214.6 53.6934C213.59 54.735 212.809 56.0046 212.256 57.502C211.702 58.9993 211.377 60.6758 211.279 62.5312L208.594 62.7266C208.594 59.4062 208.919 56.3301 209.57 53.498C210.221 50.666 211.198 48.1758 212.5 46.0273C213.835 43.8789 215.495 42.2025 217.48 40.998C219.499 39.7936 221.826 39.1914 224.463 39.1914C225.179 39.1914 225.944 39.2565 226.758 39.3867C227.604 39.5169 228.239 39.6634 228.662 39.8262ZM267.285 82.0625V18H279.102V93H268.408L267.285 82.0625ZM232.91 67.1699V66.1445C232.91 62.1406 233.382 58.4948 234.326 55.207C235.27 51.8867 236.637 49.0384 238.428 46.6621C240.218 44.2533 242.399 42.4141 244.971 41.1445C247.542 39.8424 250.439 39.1914 253.662 39.1914C256.852 39.1914 259.652 39.8099 262.061 41.0469C264.469 42.2839 266.52 44.0579 268.213 46.3691C269.906 48.6478 271.257 51.3822 272.266 54.5723C273.275 57.7298 273.991 61.2454 274.414 65.1191V68.3906C273.991 72.1667 273.275 75.6172 272.266 78.7422C271.257 81.8672 269.906 84.569 268.213 86.8477C266.52 89.1263 264.453 90.8841 262.012 92.1211C259.603 93.3581 256.787 93.9766 253.564 93.9766C250.374 93.9766 247.493 93.3092 244.922 91.9746C242.383 90.64 240.218 88.7682 238.428 86.3594C236.637 83.9505 235.27 81.1185 234.326 77.8633C233.382 74.5755 232.91 71.0111 232.91 67.1699ZM244.678 66.1445V67.1699C244.678 69.5788 244.889 71.8249 245.312 73.9082C245.768 75.9915 246.468 77.8307 247.412 79.4258C248.356 80.9883 249.577 82.2253 251.074 83.1367C252.604 84.0156 254.427 84.4551 256.543 84.4551C259.212 84.4551 261.41 83.8691 263.135 82.6973C264.86 81.5254 266.211 79.9466 267.188 77.9609C268.197 75.9427 268.88 73.6966 269.238 71.2227V62.3848C269.043 60.4642 268.636 58.6738 268.018 57.0137C267.432 55.3535 266.634 53.9049 265.625 52.668C264.616 51.3984 263.363 50.4219 261.865 49.7383C260.4 49.0221 258.659 48.6641 256.641 48.6641C254.492 48.6641 252.669 49.1198 251.172 50.0312C249.674 50.9427 248.438 52.196 247.461 53.791C246.517 55.3861 245.817 57.2415 245.361 59.3574C244.906 61.4733 244.678 63.7357 244.678 66.1445ZM289.16 67.1699V66.0469C289.16 62.2383 289.714 58.7064 290.82 55.4512C291.927 52.1634 293.522 49.3151 295.605 46.9062C297.721 44.4648 300.293 42.5768 303.32 41.2422C306.38 39.875 309.831 39.1914 313.672 39.1914C317.546 39.1914 320.996 39.875 324.023 41.2422C327.083 42.5768 329.671 44.4648 331.787 46.9062C333.903 49.3151 335.514 52.1634 336.621 55.4512C337.728 58.7064 338.281 62.2383 338.281 66.0469V67.1699C338.281 70.9785 337.728 74.5104 336.621 77.7656C335.514 81.0208 333.903 83.8691 331.787 86.3105C329.671 88.7194 327.1 90.6074 324.072 91.9746C321.045 93.3092 317.611 93.9766 313.77 93.9766C309.896 93.9766 306.429 93.3092 303.369 91.9746C300.342 90.6074 297.77 88.7194 295.654 86.3105C293.538 83.8691 291.927 81.0208 290.82 77.7656C289.714 74.5104 289.16 70.9785 289.16 67.1699ZM300.928 66.0469V67.1699C300.928 69.5462 301.172 71.7923 301.66 73.9082C302.148 76.0241 302.913 77.8796 303.955 79.4746C304.997 81.0697 306.331 82.3229 307.959 83.2344C309.587 84.1458 311.523 84.6016 313.77 84.6016C315.951 84.6016 317.839 84.1458 319.434 83.2344C321.061 82.3229 322.396 81.0697 323.438 79.4746C324.479 77.8796 325.244 76.0241 325.732 73.9082C326.253 71.7923 326.514 69.5462 326.514 67.1699V66.0469C326.514 63.7031 326.253 61.4896 325.732 59.4062C325.244 57.2904 324.463 55.4186 323.389 53.791C322.347 52.1634 321.012 50.8939 319.385 49.9824C317.79 49.0384 315.885 48.5664 313.672 48.5664C311.458 48.5664 309.538 49.0384 307.91 49.9824C306.315 50.8939 304.997 52.1634 303.955 53.791C302.913 55.4186 302.148 57.2904 301.66 59.4062C301.172 61.4896 300.928 63.7031 300.928 66.0469ZM411.621 74.6895C411.621 73.2246 411.393 71.9225 410.938 70.7832C410.514 69.6439 409.749 68.6022 408.643 67.6582C407.536 66.7142 405.973 65.8027 403.955 64.9238C401.969 64.0124 399.43 63.0846 396.338 62.1406C392.952 61.099 389.827 59.9434 386.963 58.6738C384.131 57.3717 381.657 55.8743 379.541 54.1816C377.425 52.4564 375.781 50.487 374.609 48.2734C373.438 46.0273 372.852 43.4395 372.852 40.5098C372.852 37.6126 373.454 34.9759 374.658 32.5996C375.895 30.2233 377.637 28.1725 379.883 26.4473C382.161 24.6895 384.847 23.3385 387.939 22.3945C391.032 21.418 394.45 20.9297 398.193 20.9297C403.467 20.9297 408.008 21.9062 411.816 23.8594C415.658 25.8125 418.604 28.4329 420.654 31.7207C422.738 35.0085 423.779 38.638 423.779 42.6094H411.621C411.621 40.2656 411.117 38.1986 410.107 36.4082C409.131 34.5853 407.633 33.153 405.615 32.1113C403.63 31.0697 401.107 30.5488 398.047 30.5488C395.15 30.5488 392.741 30.9883 390.82 31.8672C388.9 32.7461 387.467 33.9342 386.523 35.4316C385.579 36.929 385.107 38.6217 385.107 40.5098C385.107 41.8444 385.417 43.0651 386.035 44.1719C386.654 45.2461 387.598 46.2552 388.867 47.1992C390.137 48.1107 391.732 48.9733 393.652 49.7871C395.573 50.6009 397.835 51.3822 400.439 52.1309C404.378 53.3027 407.812 54.6048 410.742 56.0371C413.672 57.4368 416.113 59.0319 418.066 60.8223C420.02 62.6126 421.484 64.6471 422.461 66.9258C423.438 69.1719 423.926 71.7272 423.926 74.5918C423.926 77.5866 423.324 80.2884 422.119 82.6973C420.915 85.0736 419.189 87.1081 416.943 88.8008C414.73 90.4609 412.061 91.7467 408.936 92.6582C405.843 93.5371 402.393 93.9766 398.584 93.9766C395.166 93.9766 391.797 93.5208 388.477 92.6094C385.189 91.6979 382.194 90.3145 379.492 88.459C376.79 86.571 374.642 84.2272 373.047 81.4277C371.452 78.5957 370.654 75.2917 370.654 71.5156H382.91C382.91 73.8268 383.301 75.7962 384.082 77.4238C384.896 79.0514 386.019 80.3861 387.451 81.4277C388.883 82.4368 390.544 83.1855 392.432 83.6738C394.352 84.1621 396.403 84.4062 398.584 84.4062C401.449 84.4062 403.841 83.9993 405.762 83.1855C407.715 82.3717 409.18 81.2324 410.156 79.7676C411.133 78.3027 411.621 76.61 411.621 74.6895ZM463.379 82.4043V57.209C463.379 55.321 463.037 53.6934 462.354 52.3262C461.67 50.959 460.628 49.901 459.229 49.1523C457.861 48.4036 456.136 48.0293 454.053 48.0293C452.132 48.0293 450.472 48.3548 449.072 49.0059C447.673 49.6569 446.582 50.5358 445.801 51.6426C445.02 52.7493 444.629 54.0026 444.629 55.4023H432.91C432.91 53.319 433.415 51.3008 434.424 49.3477C435.433 47.3945 436.898 45.653 438.818 44.123C440.739 42.5931 443.034 41.3887 445.703 40.5098C448.372 39.6309 451.367 39.1914 454.688 39.1914C458.659 39.1914 462.174 39.8587 465.234 41.1934C468.327 42.528 470.752 44.5462 472.51 47.248C474.3 49.9173 475.195 53.2702 475.195 57.3066V80.793C475.195 83.2018 475.358 85.3665 475.684 87.2871C476.042 89.1751 476.546 90.819 477.197 92.2188V93H465.137C464.583 91.7305 464.144 90.1191 463.818 88.166C463.525 86.1803 463.379 84.2598 463.379 82.4043ZM465.088 60.8711L465.186 68.1465H456.738C454.557 68.1465 452.637 68.3581 450.977 68.7812C449.316 69.1719 447.933 69.7578 446.826 70.5391C445.719 71.3203 444.889 72.2643 444.336 73.3711C443.783 74.4779 443.506 75.7311 443.506 77.1309C443.506 78.5306 443.831 79.8164 444.482 80.9883C445.133 82.1276 446.077 83.0228 447.314 83.6738C448.584 84.3249 450.114 84.6504 451.904 84.6504C454.313 84.6504 456.413 84.1621 458.203 83.1855C460.026 82.1764 461.458 80.9557 462.5 79.5234C463.542 78.0586 464.095 76.6751 464.16 75.373L467.969 80.5977C467.578 81.9323 466.911 83.3646 465.967 84.8945C465.023 86.4245 463.786 87.8893 462.256 89.2891C460.758 90.6562 458.952 91.7793 456.836 92.6582C454.753 93.5371 452.344 93.9766 449.609 93.9766C446.159 93.9766 443.083 93.293 440.381 91.9258C437.679 90.526 435.563 88.6543 434.033 86.3105C432.503 83.9342 431.738 81.2487 431.738 78.2539C431.738 75.4544 432.259 72.9805 433.301 70.832C434.375 68.651 435.938 66.8281 437.988 65.3633C440.072 63.8984 442.611 62.7917 445.605 62.043C448.6 61.2617 452.018 60.8711 455.859 60.8711H465.088ZM449.219 32.6973L458.74 18H472.021L458.74 32.6973H449.219ZM499.17 51.4473V93H487.402V40.168H498.486L499.17 51.4473ZM497.07 64.6309L493.262 64.582C493.294 60.8385 493.815 57.4043 494.824 54.2793C495.866 51.1543 497.298 48.4688 499.121 46.2227C500.977 43.9766 503.19 42.2513 505.762 41.0469C508.333 39.8099 511.198 39.1914 514.355 39.1914C516.895 39.1914 519.189 39.5495 521.24 40.2656C523.324 40.9492 525.098 42.0723 526.562 43.6348C528.06 45.1973 529.199 47.2318 529.98 49.7383C530.762 52.2122 531.152 55.2559 531.152 58.8691V93H519.336V58.8203C519.336 56.2812 518.962 54.2793 518.213 52.8145C517.497 51.3171 516.439 50.2591 515.039 49.6406C513.672 48.9896 511.963 48.6641 509.912 48.6641C507.894 48.6641 506.087 49.0872 504.492 49.9336C502.897 50.7799 501.546 51.9355 500.439 53.4004C499.365 54.8652 498.535 56.5579 497.949 58.4785C497.363 60.3991 497.07 62.4499 497.07 64.6309ZM564.746 84.6016C566.667 84.6016 568.392 84.2272 569.922 83.4785C571.484 82.6973 572.738 81.623 573.682 80.2559C574.658 78.8887 575.195 77.3099 575.293 75.5195H586.377C586.312 78.9375 585.303 82.0462 583.35 84.8457C581.396 87.6452 578.809 89.875 575.586 91.5352C572.363 93.1628 568.799 93.9766 564.893 93.9766C560.856 93.9766 557.34 93.293 554.346 91.9258C551.351 90.526 548.861 88.6055 546.875 86.1641C544.889 83.7227 543.392 80.9069 542.383 77.7168C541.406 74.5267 540.918 71.1087 540.918 67.4629V65.7539C540.918 62.1081 541.406 58.6901 542.383 55.5C543.392 52.2773 544.889 49.4453 546.875 47.0039C548.861 44.5625 551.351 42.6582 554.346 41.291C557.34 39.8913 560.84 39.1914 564.844 39.1914C569.076 39.1914 572.786 40.0378 575.977 41.7305C579.167 43.3906 581.673 45.7181 583.496 48.7129C585.352 51.6751 586.312 55.1257 586.377 59.0645H575.293C575.195 57.1113 574.707 55.3535 573.828 53.791C572.982 52.196 571.777 50.9264 570.215 49.9824C568.685 49.0384 566.846 48.5664 564.697 48.5664C562.321 48.5664 560.352 49.0547 558.789 50.0312C557.227 50.9753 556.006 52.2773 555.127 53.9375C554.248 55.5651 553.613 57.4043 553.223 59.4551C552.865 61.4733 552.686 63.5729 552.686 65.7539V67.4629C552.686 69.6439 552.865 71.7598 553.223 73.8105C553.581 75.8613 554.199 77.7005 555.078 79.3281C555.99 80.9232 557.227 82.209 558.789 83.1855C560.352 84.1296 562.337 84.6016 564.746 84.6016ZM607.031 18V93H595.312V18H607.031ZM604.98 64.6309L601.172 64.582C601.204 60.9362 601.709 57.5671 602.686 54.4746C603.695 51.3822 605.094 48.6966 606.885 46.418C608.708 44.1068 610.889 42.3327 613.428 41.0957C615.967 39.8262 618.783 39.1914 621.875 39.1914C624.479 39.1914 626.823 39.5495 628.906 40.2656C631.022 40.9818 632.845 42.1374 634.375 43.7324C635.905 45.2949 637.061 47.3457 637.842 49.8848C638.656 52.3913 639.062 55.4512 639.062 59.0645V93H627.246V58.9668C627.246 56.4277 626.872 54.4095 626.123 52.9121C625.407 51.4147 624.349 50.3405 622.949 49.6895C621.549 49.0059 619.84 48.6641 617.822 48.6641C615.706 48.6641 613.835 49.0872 612.207 49.9336C610.612 50.7799 609.277 51.9355 608.203 53.4004C607.129 54.8652 606.315 56.5579 605.762 58.4785C605.241 60.3991 604.98 62.4499 604.98 64.6309ZM674.268 93.9766C670.361 93.9766 666.829 93.3418 663.672 92.0723C660.547 90.7702 657.878 88.9635 655.664 86.6523C653.483 84.3411 651.807 81.623 650.635 78.498C649.463 75.373 648.877 72.0039 648.877 68.3906V66.4375C648.877 62.3034 649.479 58.5599 650.684 55.207C651.888 51.8542 653.564 48.9896 655.713 46.6133C657.861 44.2044 660.4 42.3652 663.33 41.0957C666.26 39.8262 669.434 39.1914 672.852 39.1914C676.628 39.1914 679.932 39.8262 682.764 41.0957C685.596 42.3652 687.939 44.1556 689.795 46.4668C691.683 48.7454 693.083 51.4635 693.994 54.6211C694.938 57.7786 695.41 61.2617 695.41 65.0703V70.0996H654.59V61.6523H683.789V60.7246C683.724 58.6087 683.301 56.623 682.52 54.7676C681.771 52.9121 680.615 51.4147 679.053 50.2754C677.49 49.1361 675.407 48.5664 672.803 48.5664C670.85 48.5664 669.108 48.9896 667.578 49.8359C666.081 50.6497 664.827 51.8379 663.818 53.4004C662.809 54.9629 662.028 56.8509 661.475 59.0645C660.954 61.2454 660.693 63.7031 660.693 66.4375V68.3906C660.693 70.7018 661.003 72.8503 661.621 74.8359C662.272 76.7891 663.216 78.498 664.453 79.9629C665.69 81.4277 667.188 82.5833 668.945 83.4297C670.703 84.2435 672.705 84.6504 674.951 84.6504C677.783 84.6504 680.306 84.0807 682.52 82.9414C684.733 81.8021 686.654 80.1908 688.281 78.1074L694.482 84.1133C693.343 85.7734 691.862 87.3685 690.039 88.8984C688.216 90.3958 685.986 91.6165 683.35 92.5605C680.745 93.5046 677.718 93.9766 674.268 93.9766ZM745.459 83.625V93H706.104V83.625H745.459ZM744.385 47.4922L710.107 93H702.49V85.4316L736.572 40.168H744.385V47.4922ZM739.844 40.168V49.543H703.076V40.168H739.844Z" fill="#0A0A0A"/>
<path d="M15.6895 115.344V158H8.33594V115.344H15.6895ZM33.0918 134.006V139.836H13.8145V134.006H33.0918ZM35.5234 115.344V121.203H13.8145V115.344H35.5234ZM59.1074 150.529V126.301H66.1973V158H59.5176L59.1074 150.529ZM60.1035 143.938L62.4766 143.879C62.4766 146.008 62.2422 147.971 61.7734 149.768C61.3047 151.545 60.582 153.098 59.6055 154.426C58.6289 155.734 57.3789 156.76 55.8555 157.502C54.332 158.225 52.5059 158.586 50.377 158.586C48.834 158.586 47.418 158.361 46.1289 157.912C44.8398 157.463 43.7266 156.77 42.7891 155.832C41.8711 154.895 41.1582 153.674 40.6504 152.17C40.1426 150.666 39.8887 148.869 39.8887 146.779V126.301H46.9492V146.838C46.9492 147.99 47.0859 148.957 47.3594 149.738C47.6328 150.5 48.0039 151.115 48.4727 151.584C48.9414 152.053 49.4883 152.385 50.1133 152.58C50.7383 152.775 51.4023 152.873 52.1055 152.873C54.1172 152.873 55.6992 152.482 56.8516 151.701C58.0234 150.9 58.8535 149.826 59.3418 148.479C59.8496 147.131 60.1035 145.617 60.1035 143.938ZM80.9922 113V158H73.9023V113H80.9922ZM96.2852 113V158H89.1953V113H96.2852ZM127.164 147.014C127.164 146.135 127.027 145.354 126.754 144.67C126.5 143.986 126.041 143.361 125.377 142.795C124.713 142.229 123.775 141.682 122.564 141.154C121.373 140.607 119.85 140.051 117.994 139.484C115.963 138.859 114.088 138.166 112.369 137.404C110.67 136.623 109.186 135.725 107.916 134.709C106.646 133.674 105.66 132.492 104.957 131.164C104.254 129.816 103.902 128.264 103.902 126.506C103.902 124.768 104.264 123.186 104.986 121.76C105.729 120.334 106.773 119.104 108.121 118.068C109.488 117.014 111.1 116.203 112.955 115.637C114.811 115.051 116.861 114.758 119.107 114.758C122.271 114.758 124.996 115.344 127.281 116.516C129.586 117.688 131.354 119.26 132.584 121.232C133.834 123.205 134.459 125.383 134.459 127.766H127.164C127.164 126.359 126.861 125.119 126.256 124.045C125.67 122.951 124.771 122.092 123.561 121.467C122.369 120.842 120.855 120.529 119.02 120.529C117.281 120.529 115.836 120.793 114.684 121.32C113.531 121.848 112.672 122.561 112.105 123.459C111.539 124.357 111.256 125.373 111.256 126.506C111.256 127.307 111.441 128.039 111.812 128.703C112.184 129.348 112.75 129.953 113.512 130.52C114.273 131.066 115.23 131.584 116.383 132.072C117.535 132.561 118.893 133.029 120.455 133.479C122.818 134.182 124.879 134.963 126.637 135.822C128.395 136.662 129.859 137.619 131.031 138.693C132.203 139.768 133.082 140.988 133.668 142.355C134.254 143.703 134.547 145.236 134.547 146.955C134.547 148.752 134.186 150.373 133.463 151.818C132.74 153.244 131.705 154.465 130.357 155.48C129.029 156.477 127.428 157.248 125.553 157.795C123.697 158.322 121.627 158.586 119.342 158.586C117.291 158.586 115.27 158.312 113.277 157.766C111.305 157.219 109.508 156.389 107.887 155.275C106.266 154.143 104.977 152.736 104.02 151.057C103.062 149.357 102.584 147.375 102.584 145.109H109.938C109.938 146.496 110.172 147.678 110.641 148.654C111.129 149.631 111.803 150.432 112.662 151.057C113.521 151.662 114.518 152.111 115.65 152.404C116.803 152.697 118.033 152.844 119.342 152.844C121.061 152.844 122.496 152.6 123.648 152.111C124.82 151.623 125.699 150.939 126.285 150.061C126.871 149.182 127.164 148.166 127.164 147.014ZM154.879 126.301V131.457H137.008V126.301H154.879ZM142.164 118.537H149.225V149.24C149.225 150.217 149.361 150.969 149.635 151.496C149.928 152.004 150.328 152.346 150.836 152.521C151.344 152.697 151.939 152.785 152.623 152.785C153.111 152.785 153.58 152.756 154.029 152.697C154.479 152.639 154.84 152.58 155.113 152.521L155.143 157.912C154.557 158.088 153.873 158.244 153.092 158.381C152.33 158.518 151.451 158.586 150.455 158.586C148.834 158.586 147.398 158.303 146.148 157.736C144.898 157.15 143.922 156.203 143.219 154.895C142.516 153.586 142.164 151.848 142.164 149.68V118.537ZM178.199 151.643V136.525C178.199 135.393 177.994 134.416 177.584 133.596C177.174 132.775 176.549 132.141 175.709 131.691C174.889 131.242 173.854 131.018 172.604 131.018C171.451 131.018 170.455 131.213 169.615 131.604C168.775 131.994 168.121 132.521 167.652 133.186C167.184 133.85 166.949 134.602 166.949 135.441H159.918C159.918 134.191 160.221 132.98 160.826 131.809C161.432 130.637 162.311 129.592 163.463 128.674C164.615 127.756 165.992 127.033 167.594 126.506C169.195 125.979 170.992 125.715 172.984 125.715C175.367 125.715 177.477 126.115 179.312 126.916C181.168 127.717 182.623 128.928 183.678 130.549C184.752 132.15 185.289 134.162 185.289 136.584V150.676C185.289 152.121 185.387 153.42 185.582 154.572C185.797 155.705 186.1 156.691 186.49 157.531V158H179.254C178.922 157.238 178.658 156.271 178.463 155.1C178.287 153.908 178.199 152.756 178.199 151.643ZM179.225 138.723L179.283 143.088H174.215C172.906 143.088 171.754 143.215 170.758 143.469C169.762 143.703 168.932 144.055 168.268 144.523C167.604 144.992 167.105 145.559 166.773 146.223C166.441 146.887 166.275 147.639 166.275 148.479C166.275 149.318 166.471 150.09 166.861 150.793C167.252 151.477 167.818 152.014 168.561 152.404C169.322 152.795 170.24 152.99 171.314 152.99C172.76 152.99 174.02 152.697 175.094 152.111C176.188 151.506 177.047 150.773 177.672 149.914C178.297 149.035 178.629 148.205 178.668 147.424L180.953 150.559C180.719 151.359 180.318 152.219 179.752 153.137C179.186 154.055 178.443 154.934 177.525 155.773C176.627 156.594 175.543 157.268 174.273 157.795C173.023 158.322 171.578 158.586 169.938 158.586C167.867 158.586 166.021 158.176 164.4 157.355C162.779 156.516 161.51 155.393 160.592 153.986C159.674 152.561 159.215 150.949 159.215 149.152C159.215 147.473 159.527 145.988 160.152 144.699C160.797 143.391 161.734 142.297 162.965 141.418C164.215 140.539 165.738 139.875 167.535 139.426C169.332 138.957 171.383 138.723 173.688 138.723H179.225ZM205.621 152.961C206.773 152.961 207.809 152.736 208.727 152.287C209.664 151.818 210.416 151.174 210.982 150.354C211.568 149.533 211.891 148.586 211.949 147.512H218.6C218.561 149.562 217.955 151.428 216.783 153.107C215.611 154.787 214.059 156.125 212.125 157.121C210.191 158.098 208.053 158.586 205.709 158.586C203.287 158.586 201.178 158.176 199.381 157.355C197.584 156.516 196.09 155.363 194.898 153.898C193.707 152.434 192.809 150.744 192.203 148.83C191.617 146.916 191.324 144.865 191.324 142.678V141.652C191.324 139.465 191.617 137.414 192.203 135.5C192.809 133.566 193.707 131.867 194.898 130.402C196.09 128.938 197.584 127.795 199.381 126.975C201.178 126.135 203.277 125.715 205.68 125.715C208.219 125.715 210.445 126.223 212.359 127.238C214.273 128.234 215.777 129.631 216.871 131.428C217.984 133.205 218.561 135.275 218.6 137.639H211.949C211.891 136.467 211.598 135.412 211.07 134.475C210.562 133.518 209.84 132.756 208.902 132.189C207.984 131.623 206.881 131.34 205.592 131.34C204.166 131.34 202.984 131.633 202.047 132.219C201.109 132.785 200.377 133.566 199.85 134.562C199.322 135.539 198.941 136.643 198.707 137.873C198.492 139.084 198.385 140.344 198.385 141.652V142.678C198.385 143.986 198.492 145.256 198.707 146.486C198.922 147.717 199.293 148.82 199.82 149.797C200.367 150.754 201.109 151.525 202.047 152.111C202.984 152.678 204.176 152.961 205.621 152.961ZM231.139 113V158H224.049V113H231.139ZM250.826 126.301L237.027 141.594L229.469 149.328L227.623 143.352L233.336 136.291L242.301 126.301H250.826ZM243.824 158L233.541 143.117L237.994 138.166L251.998 158H243.824ZM283.346 158H274.234L274.293 152.17H283.346C285.982 152.17 288.189 151.594 289.967 150.441C291.764 149.289 293.111 147.639 294.01 145.49C294.928 143.342 295.387 140.783 295.387 137.814V135.5C295.387 133.195 295.123 131.154 294.596 129.377C294.088 127.6 293.326 126.105 292.311 124.895C291.314 123.684 290.084 122.766 288.619 122.141C287.174 121.516 285.504 121.203 283.609 121.203H274.059V115.344H283.609C286.441 115.344 289.029 115.822 291.373 116.779C293.717 117.717 295.738 119.074 297.438 120.852C299.156 122.629 300.475 124.758 301.393 127.238C302.311 129.719 302.77 132.492 302.77 135.559V137.814C302.77 140.881 302.311 143.654 301.393 146.135C300.475 148.615 299.156 150.744 297.438 152.521C295.719 154.279 293.668 155.637 291.285 156.594C288.922 157.531 286.275 158 283.346 158ZM278.307 115.344V158H270.953V115.344H278.307ZM323.424 158.586C321.08 158.586 318.961 158.205 317.066 157.443C315.191 156.662 313.59 155.578 312.262 154.191C310.953 152.805 309.947 151.174 309.244 149.299C308.541 147.424 308.189 145.402 308.189 143.234V142.062C308.189 139.582 308.551 137.336 309.273 135.324C309.996 133.312 311.002 131.594 312.291 130.168C313.58 128.723 315.104 127.619 316.861 126.857C318.619 126.096 320.523 125.715 322.574 125.715C324.84 125.715 326.822 126.096 328.521 126.857C330.221 127.619 331.627 128.693 332.74 130.08C333.873 131.447 334.713 133.078 335.26 134.973C335.826 136.867 336.109 138.957 336.109 141.242V144.26H311.617V139.191H329.137V138.635C329.098 137.365 328.844 136.174 328.375 135.061C327.926 133.947 327.232 133.049 326.295 132.365C325.357 131.682 324.107 131.34 322.545 131.34C321.373 131.34 320.328 131.594 319.41 132.102C318.512 132.59 317.76 133.303 317.154 134.24C316.549 135.178 316.08 136.311 315.748 137.639C315.436 138.947 315.279 140.422 315.279 142.062V143.234C315.279 144.621 315.465 145.91 315.836 147.102C316.227 148.273 316.793 149.299 317.535 150.178C318.277 151.057 319.176 151.75 320.23 152.258C321.285 152.746 322.486 152.99 323.834 152.99C325.533 152.99 327.047 152.648 328.375 151.965C329.703 151.281 330.855 150.314 331.832 149.064L335.553 152.668C334.869 153.664 333.98 154.621 332.887 155.539C331.793 156.438 330.455 157.17 328.873 157.736C327.311 158.303 325.494 158.586 323.424 158.586ZM351.52 152.404L359.283 126.301H366.607L355.592 158H351.021L351.52 152.404ZM345.572 126.301L353.482 152.521L353.863 158H349.293L338.219 126.301H345.572ZM384.537 158.586C382.193 158.586 380.074 158.205 378.18 157.443C376.305 156.662 374.703 155.578 373.375 154.191C372.066 152.805 371.061 151.174 370.357 149.299C369.654 147.424 369.303 145.402 369.303 143.234V142.062C369.303 139.582 369.664 137.336 370.387 135.324C371.109 133.312 372.115 131.594 373.404 130.168C374.693 128.723 376.217 127.619 377.975 126.857C379.732 126.096 381.637 125.715 383.688 125.715C385.953 125.715 387.936 126.096 389.635 126.857C391.334 127.619 392.74 128.693 393.854 130.08C394.986 131.447 395.826 133.078 396.373 134.973C396.939 136.867 397.223 138.957 397.223 141.242V144.26H372.73V139.191H390.25V138.635C390.211 137.365 389.957 136.174 389.488 135.061C389.039 133.947 388.346 133.049 387.408 132.365C386.471 131.682 385.221 131.34 383.658 131.34C382.486 131.34 381.441 131.594 380.523 132.102C379.625 132.59 378.873 133.303 378.268 134.24C377.662 135.178 377.193 136.311 376.861 137.639C376.549 138.947 376.393 140.422 376.393 142.062V143.234C376.393 144.621 376.578 145.91 376.949 147.102C377.34 148.273 377.906 149.299 378.648 150.178C379.391 151.057 380.289 151.75 381.344 152.258C382.398 152.746 383.6 152.99 384.947 152.99C386.646 152.99 388.16 152.648 389.488 151.965C390.816 151.281 391.969 150.314 392.945 149.064L396.666 152.668C395.982 153.664 395.094 154.621 394 155.539C392.906 156.438 391.568 157.17 389.986 157.736C388.424 158.303 386.607 158.586 384.537 158.586ZM410.289 113V158H403.199V113H410.289ZM416.676 142.502V141.828C416.676 139.543 417.008 137.424 417.672 135.471C418.336 133.498 419.293 131.789 420.543 130.344C421.812 128.879 423.355 127.746 425.172 126.945C427.008 126.125 429.078 125.715 431.383 125.715C433.707 125.715 435.777 126.125 437.594 126.945C439.43 127.746 440.982 128.879 442.252 130.344C443.521 131.789 444.488 133.498 445.152 135.471C445.816 137.424 446.148 139.543 446.148 141.828V142.502C446.148 144.787 445.816 146.906 445.152 148.859C444.488 150.812 443.521 152.521 442.252 153.986C440.982 155.432 439.439 156.564 437.623 157.385C435.807 158.186 433.746 158.586 431.441 158.586C429.117 158.586 427.037 158.186 425.201 157.385C423.385 156.564 421.842 155.432 420.572 153.986C419.303 152.521 418.336 150.812 417.672 148.859C417.008 146.906 416.676 144.787 416.676 142.502ZM423.736 141.828V142.502C423.736 143.928 423.883 145.275 424.176 146.545C424.469 147.814 424.928 148.928 425.553 149.885C426.178 150.842 426.979 151.594 427.955 152.141C428.932 152.688 430.094 152.961 431.441 152.961C432.75 152.961 433.883 152.688 434.84 152.141C435.816 151.594 436.617 150.842 437.242 149.885C437.867 148.928 438.326 147.814 438.619 146.545C438.932 145.275 439.088 143.928 439.088 142.502V141.828C439.088 140.422 438.932 139.094 438.619 137.844C438.326 136.574 437.857 135.451 437.213 134.475C436.588 133.498 435.787 132.736 434.811 132.189C433.854 131.623 432.711 131.34 431.383 131.34C430.055 131.34 428.902 131.623 427.926 132.189C426.969 132.736 426.178 133.498 425.553 134.475C424.928 135.451 424.469 136.574 424.176 137.844C423.883 139.094 423.736 140.422 423.736 141.828ZM459.156 132.395V170.188H452.096V126.301H458.6L459.156 132.395ZM479.811 141.857V142.473C479.811 144.777 479.537 146.916 478.99 148.889C478.463 150.842 477.672 152.551 476.617 154.016C475.582 155.461 474.303 156.584 472.779 157.385C471.256 158.186 469.498 158.586 467.506 158.586C465.533 158.586 463.805 158.225 462.32 157.502C460.855 156.76 459.615 155.715 458.6 154.367C457.584 153.02 456.764 151.438 456.139 149.621C455.533 147.785 455.104 145.773 454.85 143.586V141.213C455.104 138.889 455.533 136.779 456.139 134.885C456.764 132.99 457.584 131.359 458.6 129.992C459.615 128.625 460.855 127.57 462.32 126.828C463.785 126.086 465.494 125.715 467.447 125.715C469.439 125.715 471.207 126.105 472.75 126.887C474.293 127.648 475.592 128.742 476.646 130.168C477.701 131.574 478.492 133.273 479.02 135.266C479.547 137.238 479.811 139.436 479.811 141.857ZM472.75 142.473V141.857C472.75 140.393 472.613 139.035 472.34 137.785C472.066 136.516 471.637 135.402 471.051 134.445C470.465 133.488 469.713 132.746 468.795 132.219C467.896 131.672 466.812 131.398 465.543 131.398C464.293 131.398 463.219 131.613 462.32 132.043C461.422 132.453 460.67 133.029 460.064 133.771C459.459 134.514 458.99 135.383 458.658 136.379C458.326 137.355 458.092 138.42 457.955 139.572V145.256C458.189 146.662 458.59 147.951 459.156 149.123C459.723 150.295 460.523 151.232 461.559 151.936C462.613 152.619 463.961 152.961 465.602 152.961C466.871 152.961 467.955 152.688 468.854 152.141C469.752 151.594 470.484 150.842 471.051 149.885C471.637 148.908 472.066 147.785 472.34 146.516C472.613 145.246 472.75 143.898 472.75 142.473ZM499.791 158.586C497.447 158.586 495.328 158.205 493.434 157.443C491.559 156.662 489.957 155.578 488.629 154.191C487.32 152.805 486.314 151.174 485.611 149.299C484.908 147.424 484.557 145.402 484.557 143.234V142.062C484.557 139.582 484.918 137.336 485.641 135.324C486.363 133.312 487.369 131.594 488.658 130.168C489.947 128.723 491.471 127.619 493.229 126.857C494.986 126.096 496.891 125.715 498.941 125.715C501.207 125.715 503.189 126.096 504.889 126.857C506.588 127.619 507.994 128.693 509.107 130.08C510.24 131.447 511.08 133.078 511.627 134.973C512.193 136.867 512.477 138.957 512.477 141.242V144.26H487.984V139.191H505.504V138.635C505.465 137.365 505.211 136.174 504.742 135.061C504.293 133.947 503.6 133.049 502.662 132.365C501.725 131.682 500.475 131.34 498.912 131.34C497.74 131.34 496.695 131.594 495.777 132.102C494.879 132.59 494.127 133.303 493.521 134.24C492.916 135.178 492.447 136.311 492.115 137.639C491.803 138.947 491.646 140.422 491.646 142.062V143.234C491.646 144.621 491.832 145.91 492.203 147.102C492.594 148.273 493.16 149.299 493.902 150.178C494.645 151.057 495.543 151.75 496.598 152.258C497.652 152.746 498.854 152.99 500.201 152.99C501.9 152.99 503.414 152.648 504.742 151.965C506.07 151.281 507.223 150.314 508.199 149.064L511.92 152.668C511.236 153.664 510.348 154.621 509.254 155.539C508.16 156.438 506.822 157.17 505.24 157.736C503.678 158.303 501.861 158.586 499.791 158.586ZM525.074 132.336V158H518.014V126.301H524.752L525.074 132.336ZM534.771 126.096L534.713 132.658C534.283 132.58 533.814 132.521 533.307 132.482C532.818 132.443 532.33 132.424 531.842 132.424C530.631 132.424 529.566 132.6 528.648 132.951C527.73 133.283 526.959 133.771 526.334 134.416C525.729 135.041 525.26 135.803 524.928 136.701C524.596 137.6 524.4 138.605 524.342 139.719L522.73 139.836C522.73 137.844 522.926 135.998 523.316 134.299C523.707 132.6 524.293 131.105 525.074 129.816C525.875 128.527 526.871 127.521 528.062 126.799C529.273 126.076 530.67 125.715 532.252 125.715C532.682 125.715 533.141 125.754 533.629 125.832C534.137 125.91 534.518 125.998 534.771 126.096Z" fill="#323232"/>
</svg>
