<svg width="100%" height="100%" viewBox="0 0 117 117" fill="none" xmlns="http://www.w3.org/2000/svg">
<path d="M86.5874 109.23C86.1561 109.459 86.1923 109.531 86.6056 109.321C86.7397 109.267 86.8521 109.191 86.9499 109.1C86.9499 109.024 86.9499 109.024 86.5874 109.23ZM87.4574 108.759C87.2508 108.93 87.2508 108.93 87.4973 108.817C87.6278 108.741 87.7438 108.669 87.7438 108.647C87.7438 108.549 87.6858 108.571 87.4574 108.759ZM88.0229 108.418C87.8163 108.589 87.8163 108.589 88.0628 108.476C88.1969 108.4 88.3093 108.321 88.3093 108.302C88.3093 108.212 88.2513 108.23 88.0229 108.418ZM88.5956 108.081C88.389 108.252 88.389 108.252 88.6283 108.136C88.7624 108.063 88.8747 107.987 88.8747 107.965C88.8747 107.875 88.8167 107.893 88.5956 108.081ZM89.3677 107.57C88.9726 107.835 88.8349 108.005 89.1974 107.817C89.4402 107.668 89.8535 107.342 89.781 107.342C89.6251 107.4 89.4946 107.498 89.3641 107.57H89.3677ZM54.7029 0.5C54.4383 0.518125 53.6445 0.590627 52.9485 0.648628C36.4625 2.14216 21.0386 11.0163 11.2623 24.6865C5.85758 32.1795 2.34869 40.8833 1.02561 50.0221C0.557998 53.2122 0.5 54.1547 0.5 58.4794C0.5 62.8005 0.557998 63.7285 1.02561 66.9186C4.18289 88.7089 19.6829 107.001 40.6927 113.78C44.4735 114.987 48.4355 115.821 52.9485 116.332C54.7029 116.52 62.2898 116.52 64.0443 116.332C71.845 115.462 78.4314 113.537 84.949 110.213C85.9495 109.705 86.1379 109.571 86.0038 109.459C82.8139 105.25 79.682 101.038 76.5465 96.7892L67.2777 84.2718L55.6672 67.0709C51.7958 61.3142 47.9099 55.5721 43.9624 49.8735C43.9225 49.8735 43.8718 57.5188 43.85 66.8425C43.8102 83.1734 43.8102 83.8368 43.6035 84.2138C43.3969 84.667 43.0562 85.044 42.6031 85.2542C42.2442 85.4246 41.9216 85.4609 40.207 85.4609H38.2459L37.7348 85.1418C37.4159 84.9352 37.1512 84.6488 36.9809 84.3117L36.7344 83.8006L36.7525 61.0677L36.7924 38.3349L37.1512 37.8818C37.3796 37.6026 37.6623 37.3742 37.9813 37.2039C38.4562 36.9755 38.6447 36.9392 40.6058 36.9392C42.9076 36.9392 43.2882 37.0299 43.8935 37.6933C48.5914 44.6969 53.2747 51.7187 57.882 58.7622C65.4181 70.1884 75.7055 85.7799 80.7623 93.4288L89.9586 107.345L90.4117 107.045C94.8304 104.097 98.8504 100.588 102.319 96.5862C109.627 88.2195 114.369 77.928 115.974 66.944C116.442 63.7539 116.5 62.8078 116.5 58.4867C116.5 54.162 116.442 53.2376 115.974 50.0475C112.817 28.2572 97.3171 9.96507 76.3073 3.18255C72.3779 1.93915 68.3361 1.09089 64.2436 0.655878C63.1453 0.543501 55.649 0.409373 54.7066 0.50725L54.7029 0.5ZM78.4351 35.5798C78.9824 35.8408 79.3957 36.3339 79.5842 36.8994C79.682 37.2039 79.7002 43.5079 79.682 57.7073L79.6422 78.0947L76.0571 72.5846L72.4504 67.0709V52.2697C72.4504 42.6741 72.4903 37.2945 72.541 37.0299C72.7114 36.4245 73.1246 35.917 73.6756 35.598C74.1251 35.3696 74.2991 35.3515 76.0934 35.3515C77.7717 35.3515 78.0581 35.3696 78.4351 35.5798Z" fill="#1E1E1E"/>
</svg>
