
<svg fill="none" height="16" viewBox="0 0 16 16" width="16" xmlns="http://www.w3.org/2000/svg"><g fill="#212121"><path d="m7 6.5c.82843 0 1.5-.67157 1.5-1.5s-.67157-1.5-1.5-1.5-1.5.67157-1.5 1.5.67157 1.5 1.5 1.5zm0-1c-.27614 0-.5-.22386-.5-.5s.22386-.5.5-.5.5.22386.5.5-.22386.5-.5.5z"/><path d="m4 8.24994c0-.69041.5597-1.24994 1.25-1.24994h3.5c.6903 0 1.25.55953 1.25 1.24994v.25006c0 .43646-.18693.95827-.68707 1.36015-.49321.39635-1.24415.63985-2.315.63985-1.07295 0-1.82309-.2486-2.31475-.64747-.49677-.40301-.68318-.92344-.68318-1.35253zm1.25-.24994c-.13812 0-.25.11192-.25.24994v.25006c0 .14221.06151.37177.31319.57594.25678.20832.75561.42406 1.68474.42406.93121 0 1.43131-.21261 1.68862-.41937.25038-.20118.31345-.42938.31345-.58063v-.25006c0-.13802-.11188-.24994-.25-.24994z"/><path d="m4.5 2c-1.38071 0-2.5 1.11929-2.5 2.5v5c0 1.3807 1.11929 2.5 2.5 2.5h5c1.3807 0 2.5-1.1193 2.5-2.5v-5c0-1.38071-1.1193-2.5-2.5-2.5zm5 1c.8284 0 1.5.67157 1.5 1.5v5c0 .8284-.6716 1.5-1.5 1.5h-5c-.82843 0-1.5-.6716-1.5-1.5v-5c0-.82843.67157-1.5 1.5-1.5z"/><path d="m4.49982 12.9999c.4561.6073 1.18227 1 2.00018 1h3c2.4853 0 4.5-2.0147 4.5-4.49996v-3c0-.81791-.3928-1.54408-1-2.00018v5.00018c0 1.93296-1.567 3.49996-3.5 3.49996z"/></g></svg>