<svg width="100%" height="100%" viewBox="0 0 99 87" fill="none" xmlns="http://www.w3.org/2000/svg">
<g clip-path="url(#clip0_2_5)">
<path d="M81.2972 28.1695C80.2715 27.8208 79.2086 27.4907 78.1143 27.1786C78.2941 26.4534 78.4592 25.7375 78.606 25.0339C81.0155 13.4792 79.4401 4.17075 74.0606 1.106C68.9024 -1.83268 60.4665 1.23137 51.9466 8.55644C51.1274 9.26082 50.3058 10.0066 49.4846 10.7881C48.9374 10.271 48.3911 9.77132 47.8462 9.29333C38.9171 1.46089 29.9671 -1.83981 24.5929 1.2338C19.4396 4.18101 17.9135 12.9319 20.0824 23.8823C20.2918 24.94 20.5367 26.0201 20.8135 27.1183C19.5468 27.4735 18.324 27.8522 17.1539 28.2551C6.68557 31.8608 0 37.5118 0 43.3733C0 49.4272 7.17696 55.4993 18.0806 59.1811C18.941 59.4717 19.8339 59.7464 20.754 60.0072C20.4553 61.195 20.1956 62.3589 19.9775 63.4941C17.9095 74.2545 19.5245 82.7986 24.664 85.7272C29.9728 88.7516 38.8823 85.6429 47.5579 78.1509C48.2436 77.5587 48.9317 76.9306 49.6211 76.2723C50.5147 77.1224 51.4068 77.9269 52.2942 78.6816C60.6976 85.8256 68.9972 88.7104 74.1321 85.7736C79.4355 82.7405 81.1591 73.5621 78.9214 62.3951C78.7505 61.5422 78.5516 60.6709 78.3283 59.7841C78.954 59.6014 79.5682 59.4127 80.1671 59.2166C91.5025 55.5063 98.8776 49.508 98.8776 43.3733C98.8776 37.4906 91.9764 31.8015 81.2972 28.1695ZM78.8387 55.2555C78.298 55.4324 77.7433 55.6033 77.1779 55.769C75.9266 51.8552 74.2377 47.6935 72.1709 43.3937C74.1432 39.1963 75.7668 35.0877 76.9831 31.1993C77.9946 31.4885 78.9763 31.7935 79.9223 32.1153C89.0723 35.2272 94.6536 39.8281 94.6536 43.3733C94.6536 47.1496 88.6259 52.0517 78.8387 55.2555ZM74.7776 63.2055C75.7671 68.1434 75.9084 72.6079 75.253 76.0979C74.6641 79.234 73.4798 81.3248 72.0155 82.1622C68.8994 83.9441 62.2356 81.6279 55.049 75.5182C54.2251 74.8179 53.3953 74.07 52.5628 73.2785C55.3489 70.2682 58.1334 66.7686 60.8511 62.8819C65.6311 62.4629 70.1471 61.7778 74.2424 60.8425C74.4441 61.6464 74.6233 62.4347 74.7776 63.2055ZM33.7096 81.8543C30.6651 82.9165 28.2404 82.9469 26.7747 82.112C23.6557 80.3348 22.3591 73.4747 24.1278 64.2724C24.3304 63.2185 24.5715 62.136 24.8494 61.0294C28.8999 61.9143 33.3828 62.551 38.1742 62.9348C40.9102 66.738 43.7751 70.2338 46.6622 73.2947C46.0314 73.8963 45.4031 74.4691 44.7783 75.0088C40.942 78.3216 37.0976 80.6721 33.7096 81.8543ZM19.4467 55.2324C14.6253 53.6044 10.6436 51.4885 7.9144 49.1796C5.46201 47.1047 4.22384 45.0448 4.22384 43.3733C4.22384 39.8163 9.59169 35.2794 18.5443 32.1957C19.6306 31.8215 20.7677 31.4689 21.9478 31.1376C23.1851 35.1138 24.8082 39.271 26.7669 43.4749C24.7829 47.7411 23.1367 51.9646 21.8873 55.9874C21.046 55.7485 20.2309 55.497 19.4467 55.2324ZM24.2277 23.0809C22.3695 13.6988 23.6036 6.62137 26.7092 4.84539C30.0171 2.95344 37.3319 5.65096 45.0414 12.4139C45.5342 12.8462 46.029 13.2986 46.5251 13.7667C43.6523 16.8142 40.8135 20.2837 38.1019 24.0645C33.4516 24.4903 29.0002 25.1744 24.9075 26.0903C24.6501 25.0678 24.4222 24.0631 24.2277 23.0809ZM66.8791 33.4855C65.9007 31.8159 64.8963 30.1858 63.8723 28.6002C67.0271 28.9942 70.0497 29.5173 72.8883 30.1573C72.0361 32.8555 70.9739 35.6767 69.7236 38.5688C68.8267 36.8865 67.8781 35.1903 66.8791 33.4855ZM49.486 16.749C51.4343 18.8343 53.3854 21.1625 55.3046 23.6886C53.3707 23.5983 51.4128 23.5514 49.4388 23.5514C47.4834 23.5514 45.54 23.5973 43.6181 23.686C45.5392 21.1834 47.5072 18.8583 49.486 16.749ZM31.9815 33.5143C31.0041 35.1886 30.0731 36.8755 29.1903 38.5656C27.9602 35.6836 26.9079 32.8496 26.0483 30.1131C28.8694 29.4894 31.8778 28.9795 35.0125 28.5929C33.9741 30.1931 32.9614 31.8356 31.9815 33.5143ZM35.1028 58.4514C31.8641 58.0944 28.8105 57.6107 25.99 57.0042C26.8634 54.2189 27.9389 51.3243 29.195 48.3803C30.0801 50.0691 31.0149 51.7568 31.9982 53.4347C32.9998 55.1441 34.0377 56.8185 35.1028 58.4514ZM49.6028 70.2918C47.6008 68.1579 45.6039 65.7973 43.6537 63.2582C45.5469 63.3316 47.4771 63.3691 49.4388 63.3691C51.4542 63.3691 53.4465 63.3243 55.4075 63.238C53.4821 65.8229 51.538 68.1871 49.6028 70.2918ZM69.7639 48.2302C71.0855 51.2061 72.1996 54.0855 73.0842 56.8234C70.2173 57.4695 67.122 57.9899 63.8607 58.3766C64.8871 56.7696 65.9003 55.1115 66.896 53.406C67.9032 51.6804 68.8596 49.9523 69.7639 48.2302ZM63.2371 51.3212C61.6915 53.9688 60.1046 56.4963 58.4937 58.8821C55.5596 59.0893 52.5283 59.1961 49.4388 59.1961C46.3618 59.1961 43.3687 59.1017 40.4865 58.9168C38.8106 56.4998 37.1893 53.9648 35.6535 51.344C34.1218 48.7303 32.7124 46.0945 31.435 43.4735C32.712 40.8464 34.1181 38.2076 35.641 35.5986L35.6407 35.5991C37.1677 32.9832 38.7747 30.4605 40.4351 28.0586C43.3758 27.839 46.3912 27.7244 49.4386 27.7244C52.4998 27.7244 55.5193 27.8399 58.459 28.0614C60.0941 30.4458 61.6902 32.9602 63.2232 35.5765C64.7736 38.2222 66.1978 40.8434 67.4858 43.4142C66.2017 46.0291 64.7806 48.6767 63.2371 51.3212ZM71.9507 4.72125C75.2618 6.60763 76.5494 14.2154 74.4691 24.1916C74.3364 24.8282 74.187 25.4765 74.0247 26.1336C69.9225 25.1985 65.4679 24.5027 60.8041 24.0704C58.0871 20.2481 55.2716 16.7732 52.4456 13.7647C53.2054 13.0426 53.9641 12.3541 54.7197 11.7043C62.0195 5.42823 68.8422 2.95031 71.9507 4.72125ZM49.4388 34.6505C54.3151 34.6505 58.2682 38.5557 58.2682 43.3733C58.2682 48.1907 54.3151 52.0962 49.4388 52.0962C44.5625 52.0962 40.6094 48.1907 40.6094 43.3733C40.6094 38.5557 44.5625 34.6505 49.4388 34.6505Z" fill="#00D8FF"/>
</g>
<defs>
<clipPath id="clip0_2_5">
<rect width="100%" height="100%" fill="white"/>
</clipPath>
</defs>
</svg>
