<svg width="100%" height="100%" viewBox="0 0 51 30" fill="none" xmlns="http://www.w3.org/2000/svg">
<g clip-path="url(#clip0_4_37)">
<path d="M25.5 0C18.7 0 14.45 3.32468 12.75 9.97403C15.3 6.64935 18.275 5.4026 21.675 6.23377C23.6149 6.70799 25.0014 8.08413 26.5361 9.60748C29.0363 12.089 31.9299 14.961 38.25 14.961C45.05 14.961 49.3 11.6364 51 4.98701C48.45 8.31169 45.475 9.55844 42.075 8.72727C40.1351 8.25304 38.7486 6.87691 37.2139 5.35356C34.7137 2.87206 31.8201 0 25.5 0ZM12.75 14.961C5.95 14.961 1.7 18.2857 0 24.9351C2.55 21.6104 5.525 20.3636 8.925 21.1948C10.8649 21.669 12.2514 23.0452 13.7861 24.5685C16.2863 27.05 19.1799 29.9221 25.5 29.9221C32.3 29.9221 36.55 26.5974 38.25 19.9481C35.7 23.2727 32.725 24.5195 29.325 23.6883C27.3851 23.2141 25.9986 21.8379 24.4639 20.3146C21.9637 17.8331 19.0701 14.961 12.75 14.961Z" fill="url(#paint0_linear_4_37)"/>
</g>
<defs>
<linearGradient id="paint0_linear_4_37" x1="-362.667" y1="1474.56" x2="12072.6" y2="5885.41" gradientUnits="userSpaceOnUse">
<stop stop-color="#2298BD"/>
<stop offset="1" stop-color="#0ED7B5"/>
</linearGradient>
<clipPath id="clip0_4_37">
<rect width="100%" height="100%" fill="white"/>
</clipPath>
</defs>
</svg>
