<svg width="100%" height="100%" viewBox="0 0 35 36" fill="none" xmlns="http://www.w3.org/2000/svg">
<g clip-path="url(#clip0_14_39)">
<path d="M2.48751 17.9994C2.48751 24.1117 5.94084 29.3935 10.9484 31.8968L3.78726 11.7152C2.9288 13.6925 2.48589 15.8339 2.48751 17.9994ZM27.6346 17.2202C27.6346 18.5421 27.1407 20.0761 26.4914 22.2119L24.9942 27.3588L19.569 10.7597C20.4723 10.7109 21.2873 10.6125 21.2873 10.6125C22.096 10.5141 22.0008 9.29147 21.191 9.34054C21.191 9.34054 18.76 9.53651 17.1901 9.53651C15.7149 9.53651 13.2357 9.34054 13.2357 9.34054C12.4267 9.29147 12.3319 10.5637 13.1409 10.6125C13.1409 10.6125 13.9067 10.7109 14.7151 10.7597L17.0544 17.351L13.7687 27.4857L8.3018 10.76C9.20677 10.7112 10.0203 10.6128 10.0203 10.6128C10.8285 10.5143 10.733 9.29176 9.92377 9.34083C9.92377 9.34083 7.4931 9.53681 5.92284 9.53681C5.64118 9.53681 5.30896 9.52946 4.95674 9.51859C7.64107 5.32637 12.2553 2.55858 17.5 2.55858C21.4084 2.55858 24.9668 4.09526 27.638 6.61212C27.5729 6.6083 27.5098 6.59978 27.4432 6.59978C25.9689 6.59978 24.9225 7.92109 24.9225 9.34054C24.9225 10.6125 25.6355 11.6896 26.3965 12.9616C26.9681 13.9902 27.6346 15.3118 27.6346 17.2202ZM17.7634 19.3501L22.3785 32.3537C22.4077 32.4278 22.4434 32.499 22.4853 32.5664C20.9248 33.1306 19.2482 33.4417 17.5 33.4417C16.0644 33.4417 14.6362 33.2298 13.2591 32.8123L17.7634 19.3501ZM30.6728 10.591C31.8833 12.8615 32.5159 15.41 32.5119 17.9994C32.5119 23.6963 29.5099 28.6698 25.0468 31.3468L29.6325 17.7097C30.4895 15.5072 30.774 13.7458 30.774 12.1788C30.774 11.6112 30.7374 11.0829 30.6728 10.591ZM17.5 0C27.149 0 35.0006 8.07447 35.0009 17.9994C35.0009 27.9258 27.149 36 17.5 36C7.85046 36 0 27.9255 0 17.9994C0 8.07447 7.85075 0 17.5 0ZM17.5 35.1747C26.7062 35.1747 34.1967 27.4698 34.1967 17.9994C34.1967 8.52989 26.7065 0.825634 17.5 0.825634C8.29295 0.825634 0.802414 8.52989 0.802414 17.9994C0.802414 27.4698 8.29323 35.1747 17.5 35.1747Z" fill="#00749A"/>
</g>
<defs>
<clipPath id="clip0_14_39">
<rect width="100%" height="100%" fill="white"/>
</clipPath>
</defs>
</svg>
